REM DIRINDEX 1\2\6,1\2\7,1\2\8,1\3\9,1\3\10,1\3\11,1\4\12,1\4\13,1\4\14,1\5\15,1\5\16,1\5\17,1\5\18
REM DIRNAME folder01,folder02,folder03,folder04,folder05,folder06,folder07,folder08,folder09,folder10,folder11,folder12,folder13,folder14,folder15,folder16,folder17,folder18
TITLE ""
FILE "" MP3
  TRACK 01 AUDIO
    TITLE "16:cjc019_5220"
    INDEX 01 00:00:00
  TRACK 02 AUDIO
    TITLE "0:"
    INDEX 01 00:00:74
  TRACK 03 AUDIO
    TITLE "18:cjc019_5221"
    INDEX 01 00:01:52
  TRACK 04 AUDIO
    TITLE "0:"
    INDEX 01 00:06:18
  TRACK 05 AUDIO
    TITLE "17:cjc019_5222"
    INDEX 01 00:06:73
  TRACK 06 AUDIO
    TITLE "0:"
    INDEX 01 00:08:07
  TRACK 07 AUDIO
    TITLE "16:cjc019_5223"
    INDEX 01 00:09:67
  TRACK 08 AUDIO
    TITLE "0:"
    INDEX 01 00:10:74
  TRACK 09 AUDIO
    TITLE "18:cjc019_5224"
    INDEX 01 00:11:56
  TRACK 10 AUDIO
    TITLE "0:"
    INDEX 01 00:14:07
  TRACK 11 AUDIO
    TITLE "17:cjc019_5225"
    INDEX 01 00:14:56
  TRACK 12 AUDIO
    TITLE "0:"
    INDEX 01 00:15:60
  TRACK 13 AUDIO
    TITLE "16:cjc019_5226"
    INDEX 01 00:17:43
  TRACK 14 AUDIO
    TITLE "0:"
    INDEX 01 00:18:58
  TRACK 15 AUDIO
    TITLE "18:cjc019_5227"
    INDEX 01 00:19:34
  TRACK 16 AUDIO
    TITLE "0:"
    INDEX 01 00:21:74
  TRACK 17 AUDIO
    TITLE "17:cjc019_5228"
    INDEX 01 00:22:52
  TRACK 18 AUDIO
    TITLE "0:"
    INDEX 01 00:23:67
  TRACK 19 AUDIO
    TITLE "16:cjc019_5229"
    INDEX 01 00:25:48
  TRACK 20 AUDIO
    TITLE "0:"
    INDEX 01 00:27:02
  TRACK 21 AUDIO
    TITLE "18:cjc019_5230"
    INDEX 01 00:27:55
  TRACK 22 AUDIO
    TITLE "0:"
    INDEX 01 00:29:64
  TRACK 23 AUDIO
    TITLE "17:cjc019_5231"
    INDEX 01 00:30:46
  TRACK 24 AUDIO
    TITLE "0:"
    INDEX 01 00:31:71
  TRACK 25 AUDIO
    TITLE "16:cjc019_5232"
    INDEX 01 00:33:56
  TRACK 26 AUDIO
    TITLE "0:"
    INDEX 01 00:34:59
  TRACK 27 AUDIO
    TITLE "18:cjc019_5233"
    INDEX 01 00:35:49
  TRACK 28 AUDIO
    TITLE "0:"
    INDEX 01 00:37:54
  TRACK 29 AUDIO
    TITLE "17:cjc019_5234"
    INDEX 01 00:38:30
  TRACK 30 AUDIO
    TITLE "0:"
    INDEX 01 00:39:35
  TRACK 31 AUDIO
    TITLE "16:cjc019_5235"
    INDEX 01 00:41:18
  TRACK 32 AUDIO
    TITLE "0:"
    INDEX 01 00:42:45
  TRACK 33 AUDIO
    TITLE "18:cjc019_5236"
    INDEX 01 00:43:25
  TRACK 34 AUDIO
    TITLE "0:"
    INDEX 01 00:45:63
  TRACK 35 AUDIO
    TITLE "17:cjc019_5237"
    INDEX 01 00:46:41
  TRACK 36 AUDIO
    TITLE "0:"
    INDEX 01 00:47:70
  TRACK 37 AUDIO
    TITLE "16:cjc019_5238"
    INDEX 01 00:49:53
  TRACK 38 AUDIO
    TITLE "0:"
    INDEX 01 00:51:15
  TRACK 39 AUDIO
    TITLE "18:cjc019_5239"
    INDEX 01 00:51:73
  TRACK 40 AUDIO
    TITLE "0:"
    INDEX 01 00:54:29
  TRACK 41 AUDIO
    TITLE "17:cjc019_5240"
    INDEX 01 00:55:08
  TRACK 42 AUDIO
    TITLE "0:"
    INDEX 01 00:56:49
  TRACK 43 AUDIO
    TITLE "16:cjc019_5241"
    INDEX 01 00:58:30
  TRACK 44 AUDIO
    TITLE "0:"
    INDEX 01 00:59:51
  TRACK 45 AUDIO
    TITLE "18:cjc019_5242"
    INDEX 01 01:00:27
  TRACK 46 AUDIO
    TITLE "0:"
    INDEX 01 01:03:29
  TRACK 47 AUDIO
    TITLE "17:cjc019_5243"
    INDEX 01 01:04:07
  TRACK 48 AUDIO
    TITLE "0:"
    INDEX 01 01:05:24
  TRACK 49 AUDIO
    TITLE "16:cjc019_5244"
    INDEX 01 01:07:12
  TRACK 50 AUDIO
    TITLE "0:"
    INDEX 01 01:08:25
  TRACK 51 AUDIO
    TITLE "18:cjc019_5245"
    INDEX 01 01:09:10
  TRACK 52 AUDIO
    TITLE "0:"
    INDEX 01 01:11:13
  TRACK 53 AUDIO
    TITLE "17:cjc019_5246"
    INDEX 01 01:11:62
  TRACK 54 AUDIO
    TITLE "0:"
    INDEX 01 01:13:02
  TRACK 55 AUDIO
    TITLE "16:cjc019_5247"
    INDEX 01 01:14:61
  TRACK 56 AUDIO
    TITLE "0:"
    INDEX 01 01:16:26
  TRACK 57 AUDIO
    TITLE "18:cjc019_5248"
    INDEX 01 01:17:08
  TRACK 58 AUDIO
    TITLE "0:"
    INDEX 01 01:18:31
  TRACK 59 AUDIO
    TITLE "17:cjc019_5249"
    INDEX 01 01:19:11
  TRACK 60 AUDIO
    TITLE "0:"
    INDEX 01 01:20:51
  TRACK 61 AUDIO
    TITLE "16:cjc019_5250"
    INDEX 01 01:22:29
  TRACK 62 AUDIO
    TITLE "0:"
    INDEX 01 01:23:54
  TRACK 63 AUDIO
    TITLE "18:cjc019_5251"
    INDEX 01 01:24:36
  TRACK 64 AUDIO
    TITLE "0:"
    INDEX 01 01:26:54
  TRACK 65 AUDIO
    TITLE "17:cjc019_5252"
    INDEX 01 01:27:28
  TRACK 66 AUDIO
    TITLE "0:"
    INDEX 01 01:28:53
  TRACK 67 AUDIO
    TITLE "16:cjc019_5253"
    INDEX 01 01:30:40
  TRACK 68 AUDIO
    TITLE "0:"
    INDEX 01 01:31:45
  TRACK 69 AUDIO
    TITLE "18:cjc019_5254"
    INDEX 01 01:32:25
  TRACK 70 AUDIO
    TITLE "0:"
    INDEX 01 01:36:52
  TRACK 71 AUDIO
    TITLE "17:cjc019_5255"
    INDEX 01 01:37:28
  TRACK 72 AUDIO
    TITLE "0:"
    INDEX 01 01:38:40
  TRACK 73 AUDIO
    TITLE "16:cjc019_5256"
    INDEX 01 01:40:19
  TRACK 74 AUDIO
    TITLE "0:"
    INDEX 01 01:41:38
  TRACK 75 AUDIO
    TITLE "18:cjc019_5257"
    INDEX 01 01:42:20
  TRACK 76 AUDIO
    TITLE "0:"
    INDEX 01 01:43:29
  TRACK 77 AUDIO
    TITLE "17:cjc019_5258"
    INDEX 01 01:44:09
  TRACK 78 AUDIO
    TITLE "0:"
    INDEX 01 01:45:28
  TRACK 79 AUDIO
    TITLE "16:cjc019_5259"
    INDEX 01 01:47:09
  TRACK 80 AUDIO
    TITLE "0:"
    INDEX 01 01:48:20
  TRACK 81 AUDIO
    TITLE "18:cjc019_5260"
    INDEX 01 01:49:02
  TRACK 82 AUDIO
    TITLE "0:"
    INDEX 01 01:52:46
  TRACK 83 AUDIO
    TITLE "17:cjc019_5261"
    INDEX 01 01:53:25
  TRACK 84 AUDIO
    TITLE "0:"
    INDEX 01 01:54:33
  TRACK 85 AUDIO
    TITLE "16:cjc019_5262"
    INDEX 01 01:56:16
  TRACK 86 AUDIO
    TITLE "0:"
    INDEX 01 01:57:37
  TRACK 87 AUDIO
    TITLE "18:cjc019_5263"
    INDEX 01 01:58:21
  TRACK 88 AUDIO
    TITLE "0:"
    INDEX 01 02:00:53
  TRACK 89 AUDIO
    TITLE "17:cjc019_5264"
    INDEX 01 02:01:33
  TRACK 90 AUDIO
    TITLE "0:"
    INDEX 01 02:02:52
  TRACK 91 AUDIO
    TITLE "16:cjc019_5265"
    INDEX 01 02:04:39
  TRACK 92 AUDIO
    TITLE "0:"
    INDEX 01 02:05:56
  TRACK 93 AUDIO
    TITLE "18:cjc019_5266"
    INDEX 01 02:06:40
  TRACK 94 AUDIO
    TITLE "0:"
    INDEX 01 02:07:53
  TRACK 95 AUDIO
    TITLE "17:cjc019_5267"
    INDEX 01 02:08:41
  TRACK 96 AUDIO
    TITLE "0:"
    INDEX 01 02:09:54
  TRACK 97 AUDIO
    TITLE "16:cjc019_5268"
    INDEX 01 02:11:41
  TRACK 98 AUDIO
    TITLE "0:"
    INDEX 01 02:12:70
  TRACK 99 AUDIO
    TITLE "18:cjc019_5269"
    INDEX 01 02:13:59
  TRACK 100 AUDIO
    TITLE "0:"
    INDEX 01 02:17:14
  TRACK 101 AUDIO
    TITLE "17:cjc019_5270"
    INDEX 01 02:17:69
  TRACK 102 AUDIO
    TITLE "0:"
    INDEX 01 02:19:21
  TRACK 103 AUDIO
    TITLE "16:cjc019_5271"
    INDEX 01 02:21:08
  TRACK 104 AUDIO
    TITLE "0:"
    INDEX 01 02:22:17
  TRACK 105 AUDIO
    TITLE "18:cjc019_5272"
    INDEX 01 02:22:68
  TRACK 106 AUDIO
    TITLE "0:"
    INDEX 01 02:27:44
  TRACK 107 AUDIO
    TITLE "17:cjc019_5273"
    INDEX 01 02:28:26
  TRACK 108 AUDIO
    TITLE "0:"
    INDEX 01 02:29:35
